<?xml version="1.0" encoding="utf-8"?>
<!-- Generator: Adobe Illustrator 24.3.0, SVG Export Plug-In . SVG Version: 6.00 Build 0)  -->
<svg version="1.1" id="телефон" xmlns="http://www.w3.org/2000/svg" xmlns:xlink="http://www.w3.org/1999/xlink" x="0px"
	 y="0px" width="1256px" height="2622px" viewBox="0 0 1256 2622" style="enable-background:new 0 0 1256 2622;"
	 xml:space="preserve">
<style type="text/css">
	.st0{opacity:0.15;}
	.st1{fill:none;stroke:#F2F2F2;stroke-width:4.13;stroke-miterlimit:10;}
</style>
<g class="st0">
	<path class="st1" d="M-118.2,1915.3c0-40.3,6.7-69.6,20.2-87.8s31.4-27.3,54-27.3c13.8,0,25.6,3.4,35.3,10.3
		c9.7,6.9,17.3,17.3,22.7,31.2c5.4,14,8.1,34.3,8.1,61c0,46.5-6.7,79.3-20.1,98.4s-31.2,28.7-53.5,28.7c-15.4,0-28.2-4.5-38.5-13.6
		c-10.3-9.1-17.8-21.8-22.6-38.4C-116.3,1965.3-118.2,1944.4-118.2,1915.3z M-90.8,1911.1c0,42.8,4.4,72.2,13.3,88.1
		c7.1,13,17.4,19.5,30.8,19.5c12.8,0,22.5-6,29-17.9c8.3-15,12.4-42.5,12.4-82.4c0-42.5-4.4-71.5-13.2-87
		c-7.4-13.2-17.9-19.8-31.4-19.8c-12.7,0-22.7,6.5-30,19.6C-87.2,1844.1-90.9,1870.8-90.8,1911.1z"/>
	<path class="st1" d="M156.6,1799.4l11.5,5.2v2.7c-18.6,4.9-34.7,12.6-48.2,22.9c-13,9.7-23.7,22.1-31.6,36.3
		c-7.5,13.8-12.2,30.3-14,49.5l17.8-13c5.9-4.7,11.2-7.8,16-9.4c5.7-1.8,11.7-2.6,17.8-2.4c17.8,0,31.7,5.3,41.7,15.8
		c10,10.6,15,25.5,15,44.7c0,21.8-7.1,40.2-21.4,55.4s-31.4,22.8-51.3,22.8c-19.7,0-35.7-7.5-48.2-22.4
		c-12.5-15-18.7-36.4-18.7-64.4c0-23.1,4.4-44.1,13.1-63s22-35.5,39.7-49.8C113.6,1815.9,134.4,1805.4,156.6,1799.4z M113.6,1909.7
		c-7.9,0-15.7,2-22.5,6c-7,4-12,9-15.2,14.9c-2.3,4.4-3.4,12.7-3.4,25c0,20.8,4.3,37,13,48.5c7.3,9.7,17,14.6,29.1,14.6
		c11.7,0,21.1-4.5,28.3-13.5c8.3-10.5,12.4-24.9,12.4-43.2c0-17.1-3.8-30-11.5-38.9C136.1,1914.2,126.1,1909.7,113.6,1909.7
		L113.6,1909.7z"/>
	<path class="st1" d="M233.3,1993.2c10.1,0.1,18.2,8.4,18.1,18.4s-8.4,18.2-18.4,18.1s-18.2-8.4-18.1-18.4c0-4.8,2-9.4,5.4-12.8
		C223.7,1995,228.4,1993.1,233.3,1993.2z"/>
	<path class="st1" d="M279.9,2026.8v-8.8l54.3-56.5c20.6-21.3,34.4-38.7,41.4-52c7-13.3,10.4-25.7,10.4-37.2
		c0-14.1-4.1-25.4-12.2-33.9s-18.9-12.7-32.3-12.7c-8.2-0.1-16.3,1.5-23.9,4.7c-5.1,2.3-8.8,5.2-11,8.6s-5.4,13.2-9.7,29.2h-9.6
		c3.2-20.4,5-35.2,5.3-44.3c7.9-8.3,16.3-14.3,25.4-18c9.1-3.7,19.4-5.6,30.9-5.7c20.3,0,36.4,5.7,48.4,17.2
		c12,11.5,18,26.5,18,45.1c0,16.1-5.4,31.9-16.3,47.4c-10.8,15.5-29,35-54.6,58.6l-30.5,31.2h57.4c24.3,0,42.6-0.7,54.7-2.2l1.6,1.4
		c-0.8,4.2-1.2,8.5-1.4,12.7c0,2,0.5,6.7,1.4,14.1l-1.6,0.9c-20.7-0.7-43.8-1.1-69.1-1.1C330.7,2025.7,304.9,2026.1,279.9,2026.8z"
		/>
	<path class="st1" d="M444.6,1915.3c0-40.3,6.7-69.6,20.2-87.8c13.5-18.2,31.4-27.3,53.9-27.3c13.8,0,25.6,3.4,35.3,10.3
		c9.7,6.9,17.3,17.3,22.7,31.2c5.4,14,8.1,34.3,8.1,61c0,46.5-6.7,79.3-20.1,98.4c-13.4,19.2-31.2,28.7-53.5,28.7
		c-15.4,0-28.2-4.5-38.5-13.6c-10.3-9.1-17.8-21.8-22.6-38.4C446.4,1965.3,444.6,1944.4,444.6,1915.3z M471.9,1911.1
		c0,42.8,4.5,72.2,13.4,88.1c7.1,13,17.4,19.5,30.8,19.5c12.8,0,22.5-6,29-17.9c8.3-15,12.4-42.5,12.4-82.4c0-42.5-4.4-71.5-13.2-87
		c-7.4-13.2-17.9-19.8-31.4-19.8c-12.7,0-22.7,6.5-30,19.6S471.9,1870.8,471.9,1911.1z"/>
	<path class="st1" d="M601.5,2026.8v-8.8l54.3-56.5c20.6-21.3,34.4-38.7,41.4-52c7-13.3,10.4-25.7,10.4-37.1
		c0-14.1-4.1-25.4-12.2-33.9s-18.9-12.7-32.3-12.7c-8.2-0.1-16.3,1.5-23.9,4.7c-5.1,2.3-8.8,5.2-11,8.6c-2.2,3.4-5.5,13.2-9.7,29.2
		H609c3.3-20.4,5-35.2,5.3-44.3c7.8-8.3,16.3-14.3,25.4-18s19.4-5.6,30.9-5.7c20.3,0,36.5,5.7,48.4,17.2c12,11.5,18,26.5,18,45.1
		c0,16.1-5.4,31.9-16.2,47.4c-10.8,15.5-29,35-54.6,58.6l-30.5,31.2h57.4c24.3,0,42.5-0.7,54.7-2.2l1.6,1.4
		c-0.8,4.2-1.2,8.5-1.4,12.7c0,2,0.5,6.7,1.4,14.1l-1.6,0.9c-20.7-0.7-43.7-1.1-69.1-1.1C652.3,2025.7,626.5,2026.1,601.5,2026.8z"
		/>
	<path class="st1" d="M880.2,1799.4l11.5,5.2v2.7c-18.7,4.9-34.7,12.6-48.2,22.9c-13,9.7-23.7,22.1-31.6,36.3
		c-7.5,13.8-12.2,30.3-14,49.5l17.8-13c5.9-4.7,11.2-7.8,16-9.4c5.7-1.8,11.7-2.6,17.8-2.4c17.8,0,31.7,5.3,41.7,15.8
		c10,10.6,15,25.5,15,44.7c0,21.8-7.1,40.2-21.3,55.4c-14.2,15.2-31.4,22.8-51.3,22.8c-19.7,0-35.7-7.5-48.2-22.4
		c-12.5-15-18.7-36.4-18.7-64.4c0-23.1,4.4-44.1,13.1-63c8.7-18.9,22-35.5,39.7-49.8C837.2,1815.9,857.9,1805.3,880.2,1799.4z
		 M837.2,1909.7c-7.9,0-15.7,2-22.5,6c-7,4-12,9-15.2,14.9c-2.3,4.4-3.5,12.7-3.5,25c0,20.8,4.3,37,13,48.5c7.3,9.7,17,14.6,29,14.6
		c11.7,0,21.1-4.5,28.3-13.5c8.3-10.5,12.4-24.9,12.4-43.2c0-17.1-3.8-30-11.5-38.9C859.6,1914.2,849.6,1909.7,837.2,1909.7
		L837.2,1909.7z"/>
</g>
<g class="st0">
	<path class="st1" d="M488,2402.4c0-40.3,6.7-69.6,20.2-87.8c13.5-18.2,31.4-27.3,53.9-27.3c13.8,0,25.6,3.4,35.3,10.3
		c9.7,6.9,17.3,17.3,22.7,31.2c5.4,14,8.1,34.3,8.1,61c0,46.5-6.7,79.3-20.1,98.4c-13.4,19.2-31.2,28.7-53.5,28.7
		c-15.4,0-28.2-4.5-38.5-13.6c-10.3-9.1-17.8-21.9-22.6-38.4C489.8,2452.3,488,2431.5,488,2402.4z M515.3,2398.1
		c0,42.8,4.5,72.2,13.3,88.1c7.1,13,17.4,19.5,30.8,19.5c12.8,0,22.4-6,29-17.9c8.3-15,12.4-42.4,12.4-82.4c0-42.5-4.4-71.5-13.2-87
		c-7.4-13.2-17.9-19.8-31.4-19.8c-12.7,0-22.7,6.5-30,19.6C518.9,2331.2,515.3,2357.8,515.3,2398.1L515.3,2398.1z"/>
	<path class="st1" d="M762.8,2286.5l11.5,5.2v2.7c-18.7,4.9-34.7,12.6-48.2,22.9c-13,9.7-23.7,22.1-31.6,36.3
		c-7.5,13.8-12.2,30.3-14,49.5l17.7-12.9c5.9-4.7,11.2-7.8,16-9.4c5.8-1.7,11.7-2.6,17.8-2.4c17.8,0,31.7,5.3,41.7,15.8
		s15,25.5,15,44.7c0,21.8-7.1,40.2-21.3,55.4c-14.2,15.2-31.3,22.8-51.3,22.8c-19.7,0-35.7-7.5-48.2-22.4
		c-12.5-15-18.7-36.4-18.7-64.4c0-23.1,4.4-44.1,13.1-63s22-35.5,39.7-49.8C719.8,2303,740.6,2292.4,762.8,2286.5z M719.8,2396.7
		c-7.9,0-15.7,2-22.5,6c-7,4-12,9-15.2,14.9c-2.3,4.4-3.5,12.7-3.5,25c0,20.8,4.3,37,13,48.5c7.3,9.7,17,14.6,29,14.6
		c11.7,0,21.2-4.5,28.3-13.5c8.3-10.5,12.4-24.9,12.4-43.2c0-17.1-3.8-30-11.5-38.9S732.2,2396.8,719.8,2396.7L719.8,2396.7z"/>
	<path class="st1" d="M839.5,2480.3c10.1,0.1,18.2,8.4,18.1,18.5c-0.1,10.1-8.4,18.2-18.5,18.1c-10.1-0.1-18.2-8.4-18.1-18.5
		c0-4.8,2-9.4,5.4-12.7C829.9,2482.1,834.6,2480.1,839.5,2480.3z"/>
	<path class="st1" d="M890,2402.4c0-40.3,6.7-69.6,20.2-87.8c13.5-18.2,31.4-27.3,53.9-27.3c13.8,0,25.6,3.4,35.3,10.3
		c9.7,6.9,17.3,17.3,22.7,31.2c5.4,14,8.1,34.3,8.1,61c0,46.5-6.7,79.3-20.1,98.4c-13.4,19.2-31.2,28.7-53.5,28.7
		c-15.4,0-28.2-4.5-38.5-13.6c-10.3-9.1-17.8-21.9-22.6-38.4C891.8,2452.3,890,2431.5,890,2402.4z M917.3,2398.1
		c0,42.8,4.5,72.2,13.3,88.1c7.1,13,17.4,19.5,30.8,19.5c12.8,0,22.4-6,29-17.9c8.3-15,12.4-42.4,12.4-82.4c0-42.5-4.4-71.5-13.2-87
		c-7.4-13.2-17.9-19.8-31.4-19.8c-12.7,0-22.7,6.5-30,19.6C920.9,2331.2,917.3,2357.8,917.3,2398.1z"/>
	<path class="st1" d="M1164.8,2286.5l11.5,5.2v2.7c-18.7,4.9-34.7,12.6-48.2,22.9c-13,9.7-23.7,22.1-31.6,36.3
		c-7.5,13.8-12.2,30.3-14,49.5l17.7-12.9c5.9-4.7,11.2-7.8,16-9.4c5.8-1.7,11.7-2.6,17.8-2.4c17.8,0,31.7,5.3,41.7,15.8
		s15,25.5,15,44.7c0,21.8-7.1,40.2-21.3,55.4c-14.2,15.2-31.3,22.8-51.3,22.8c-19.7,0-35.7-7.5-48.2-22.4
		c-12.5-15-18.7-36.4-18.7-64.4c0-23.1,4.4-44.1,13.1-63s22-35.5,39.7-49.8C1121.8,2303,1142.5,2292.4,1164.8,2286.5z
		 M1121.8,2396.7c-7.9,0-15.7,2-22.5,6c-7,4-12,9-15.2,14.9c-2.3,4.4-3.5,12.7-3.5,25c0,20.8,4.3,37,13,48.5
		c7.3,9.7,17,14.6,29,14.6c11.7,0,21.1-4.5,28.3-13.5c8.3-10.5,12.4-24.9,12.4-43.2c0-17.1-3.8-30-11.5-38.9
		S1134.2,2396.8,1121.8,2396.7L1121.8,2396.7z"/>
	<path class="st1" d="M1241.5,2480.3c10.1,0.1,18.2,8.4,18.1,18.5c-0.1,10.1-8.4,18.2-18.5,18.1c-10.1-0.1-18.2-8.4-18.1-18.5
		c0-4.8,2-9.4,5.4-12.7C1231.8,2482.1,1236.6,2480.1,1241.5,2480.3z"/>
</g>
<g class="st0">
	<path class="st1" d="M-106.1,2158.9c0-40.3,6.7-69.6,20.2-87.8c13.5-18.2,31.4-27.3,53.9-27.3c13.8,0,25.6,3.4,35.3,10.3
		c9.7,6.9,17.3,17.3,22.7,31.2c5.4,14,8.1,34.3,8.1,61c0,46.5-6.7,79.3-20.1,98.4s-31.2,28.7-53.5,28.7c-15.4,0-28.2-4.5-38.5-13.6
		s-17.8-21.8-22.6-38.4C-104.2,2208.8-106.1,2187.9-106.1,2158.9z M-78.8,2154.6c0,42.8,4.5,72.2,13.3,88.1
		c7.1,13,17.4,19.5,30.8,19.5c12.8,0,22.5-6,29-17.9c8.3-15,12.4-42.4,12.4-82.4c0-42.5-4.4-71.5-13.2-87
		c-7.4-13.2-17.9-19.8-31.4-19.8c-12.7,0-22.7,6.5-30,19.6C-75.1,2087.6-78.8,2114.3-78.8,2154.6z"/>
	<path class="st1" d="M168.7,2043l11.5,5.2v2.7c-18.7,4.9-34.7,12.6-48.2,22.9c-12.9,9.7-23.7,22.1-31.6,36.2
		c-7.5,13.8-12.2,30.3-14,49.5l17.8-13c5.9-4.7,11.2-7.8,16-9.4c5.7-1.8,11.7-2.6,17.8-2.4c17.8,0,31.7,5.3,41.7,15.8
		c10,10.6,15,25.5,15,44.7c0,21.8-7.1,40.2-21.4,55.4s-31.4,22.8-51.3,22.8c-19.7,0-35.7-7.5-48.2-22.4S55,2214.6,55,2186.6
		c0-23.1,4.4-44.1,13.1-63c8.7-18.9,22-35.5,39.7-49.8C125.7,2059.4,146.5,2048.9,168.7,2043z M125.7,2153.2c-7.9,0-15.7,2-22.5,6
		c-7,4-12,9-15.2,14.9c-2.3,4.4-3.5,12.7-3.5,25c0,20.8,4.3,37,13,48.5c7.3,9.7,17,14.6,29.1,14.6c11.7,0,21.1-4.5,28.3-13.5
		c8.3-10.5,12.4-24.9,12.4-43.2c0-17.1-3.8-30-11.5-38.9C148.2,2157.8,138.1,2153.3,125.7,2153.2L125.7,2153.2z"/>
	<path class="st1" d="M245.4,2236.7c10.1,0.1,18.2,8.4,18.1,18.5c-0.1,10.1-8.4,18.2-18.5,18.1c-10.1-0.1-18.2-8.4-18.1-18.5
		c0-4.8,2-9.4,5.4-12.7C235.8,2238.5,240.5,2236.6,245.4,2236.7z"/>
	<path class="st1" d="M295.9,2158.9c0-40.3,6.7-69.6,20.2-87.8c13.4-18.2,31.4-27.3,53.9-27.3c13.8,0,25.6,3.4,35.3,10.3
		c9.7,6.9,17.3,17.3,22.7,31.2c5.4,14,8.1,34.3,8.1,61c0,46.5-6.7,79.3-20.1,98.4s-31.2,28.7-53.5,28.7c-15.4,0-28.2-4.5-38.5-13.6
		s-17.8-21.8-22.6-38.4C297.7,2208.8,295.9,2187.9,295.9,2158.9z M323.2,2154.6c0,42.8,4.5,72.2,13.4,88.1
		c7.1,13,17.4,19.5,30.8,19.5c12.8,0,22.5-6,29-17.9c8.3-15,12.4-42.4,12.4-82.4c0-42.5-4.4-71.5-13.2-87
		c-7.4-13.2-17.9-19.8-31.4-19.8c-12.7,0-22.7,6.5-30,19.6C326.9,2087.6,323.2,2114.3,323.2,2154.6z"/>
	<path class="st1" d="M570.7,2043l11.5,5.2v2.7c-18.6,4.9-34.7,12.6-48.2,22.9c-13,9.7-23.7,22.1-31.6,36.2
		c-7.5,13.8-12.2,30.3-14,49.5l17.8-13c5.9-4.7,11.2-7.8,16-9.4c5.7-1.7,11.7-2.6,17.7-2.4c17.8,0,31.7,5.3,41.7,15.8
		c10,10.6,15,25.5,15,44.7c0,21.8-7.1,40.2-21.4,55.4s-31.4,22.8-51.3,22.8c-19.7,0-35.8-7.5-48.2-22.4
		c-12.5-15-18.7-36.4-18.6-64.3c0-23.1,4.4-44.1,13.1-63c8.7-18.9,22-35.5,39.6-49.8C527.7,2059.4,548.4,2048.9,570.7,2043z
		 M527.7,2153.2c-7.9,0-15.7,2-22.5,6c-7,4-12,9-15.2,14.9c-2.3,4.4-3.5,12.7-3.5,25c0,20.8,4.3,37,13,48.5c7.3,9.7,17,14.6,29,14.6
		c11.7,0,21.1-4.5,28.3-13.5c8.3-10.5,12.4-24.9,12.4-43.2c0-17.1-3.8-30-11.5-38.9S540.1,2153.3,527.7,2153.2L527.7,2153.2z"/>
	<path class="st1" d="M647.4,2236.7c10.1,0.1,18.2,8.4,18.1,18.5c-0.1,10.1-8.4,18.2-18.5,18.1c-10.1-0.1-18.2-8.4-18.1-18.5
		c0-4.8,2-9.4,5.4-12.7C637.7,2238.6,642.5,2236.6,647.4,2236.7z"/>
	<path class="st1" d="M693.9,2270.3v-8.8l54.3-56.5c20.6-21.3,34.4-38.7,41.4-52.1s10.4-25.7,10.5-37.1c0-14.1-4.1-25.4-12.2-33.9
		c-8.1-8.5-18.9-12.7-32.3-12.7c-8.2-0.1-16.3,1.5-23.9,4.7c-5.1,2.3-8.8,5.2-11,8.6s-5.4,13.2-9.7,29.2h-9.6
		c3.2-20.4,5-35.2,5.3-44.3c7.8-8.3,16.3-14.3,25.4-18.1c9.1-3.8,19.4-5.7,30.9-5.7c20.3,0,36.4,5.7,48.4,17.2
		c12,11.5,18,26.5,18,45.1c0,16.1-5.4,31.9-16.2,47.4c-10.8,15.5-29,35-54.6,58.6l-30.5,31.2h57.4c24.3,0,42.6-0.7,54.7-2.2l1.6,1.4
		c-0.8,4.2-1.2,8.5-1.4,12.7c0,2,0.5,6.7,1.4,14.1l-1.6,0.9c-20.7-0.7-43.8-1.1-69.1-1.1C744.8,2269.2,719,2269.6,693.9,2270.3z"/>
	<path class="st1" d="M858.7,2158.9c0-40.3,6.7-69.6,20.2-87.8c13.5-18.2,31.4-27.3,53.9-27.3c13.8,0,25.6,3.4,35.3,10.3
		c9.7,6.9,17.3,17.3,22.7,31.2c5.4,14,8.1,34.3,8.1,61c0,46.5-6.7,79.3-20.1,98.4c-13.4,19.2-31.2,28.7-53.5,28.7
		c-15.4,0-28.2-4.5-38.5-13.6s-17.8-21.8-22.6-38.4C860.5,2208.8,858.7,2187.9,858.7,2158.9z M886,2154.6c0,42.8,4.4,72.2,13.3,88.1
		c7.1,13,17.4,19.5,30.8,19.5c12.8,0,22.4-6,29-17.9c8.3-15,12.4-42.4,12.4-82.4c0-42.5-4.4-71.5-13.2-87
		c-7.4-13.2-17.9-19.8-31.4-19.8c-12.7,0-22.7,6.5-30,19.6C889.6,2087.6,885.9,2114.3,886,2154.6L886,2154.6z"/>
	<path class="st1" d="M1015.5,2270.3v-8.8l54.3-56.5c20.6-21.3,34.4-38.7,41.4-52.1s10.4-25.7,10.4-37.1c0-14.1-4.1-25.4-12.2-33.9
		c-8.1-8.5-18.9-12.7-32.3-12.7c-8.2-0.1-16.3,1.5-23.9,4.7c-5.1,2.3-8.8,5.2-11,8.6s-5.5,13.2-9.7,29.2h-9.6
		c3.3-20.4,5-35.2,5.3-44.3c7.8-8.3,16.3-14.3,25.4-18.1c9.1-3.8,19.4-5.7,30.9-5.7c20.3,0,36.5,5.7,48.4,17.2
		c12,11.5,18,26.5,18,45.1c0,16.1-5.4,31.9-16.2,47.4c-10.8,15.5-29,35-54.6,58.6l-30.4,31.2h57.4c24.3,0,42.5-0.7,54.7-2.2l1.6,1.4
		c-0.8,4.2-1.2,8.5-1.4,12.7c0,2,0.5,6.7,1.4,14.1l-1.6,0.9c-20.7-0.7-43.7-1.1-69.1-1.1C1066.3,2269.2,1040.5,2269.6,1015.5,2270.3
		z"/>
	<path class="st1" d="M1294.2,2043l11.5,5.2v2.7c-18.6,4.9-34.7,12.6-48.2,22.9c-13,9.7-23.7,22.1-31.6,36.3
		c-7.5,13.8-12.2,30.3-14,49.5l17.8-13c5.9-4.7,11.2-7.8,16-9.4c5.7-1.8,11.7-2.6,17.8-2.4c17.8,0,31.7,5.3,41.7,15.8
		s15,25.5,15,44.7c0,21.8-7.1,40.2-21.3,55.4c-14.2,15.2-31.3,22.8-51.3,22.8c-19.7,0-35.7-7.5-48.2-22.4
		c-12.5-15-18.7-36.4-18.7-64.4c0-23.1,4.4-44.1,13.1-63c8.7-18.9,22-35.5,39.7-49.8C1251.2,2059.4,1272,2048.9,1294.2,2043z
		 M1251.2,2153.2c-7.9,0-15.7,2-22.5,6c-7,4-12,9-15.2,14.9c-2.3,4.4-3.5,12.7-3.5,25c0,20.8,4.3,37,13,48.5
		c7.3,9.7,17,14.6,29.1,14.6c11.7,0,21.1-4.5,28.3-13.5c8.3-10.5,12.4-24.9,12.4-43.2c0-17.1-3.8-30-11.5-38.9
		S1263.7,2153.3,1251.2,2153.2L1251.2,2153.2z"/>
</g>
</svg>
