<?xml version="1.0" encoding="utf-8"?>
<!-- Generator: Adobe Illustrator 24.3.0, SVG Export Plug-In . SVG Version: 6.00 Build 0)  -->
<svg version="1.1" id="Слой_1" xmlns="http://www.w3.org/2000/svg" xmlns:xlink="http://www.w3.org/1999/xlink" x="0px" y="0px"
	 width="1256px" height="2622px" viewBox="0 0 1256 2622" style="enable-background:new 0 0 1256 2622;" xml:space="preserve">
<style type="text/css">
	.st0{fill:#FFFFFF;}
	.st1{fill:none;stroke:#FFFFFF;stroke-width:5;stroke-miterlimit:10;}
</style>
<g id="телефон">
	<g>
		<g>
			<g>
				<path class="st0" d="M231.8,2373.2h56v4.7h-84.1V2051h84.1v4.7h-56v112.1h28v4.7h-28L231.8,2373.2L231.8,2373.2z"/>
				<path class="st0" d="M316.4,2377.9V2051h84.1v4.7h-56v322.2L316.4,2377.9L316.4,2377.9z"/>
				<path class="st0" d="M563.8,2045.9c90.6,0,168.6,78,168.6,168.6c0,90.6-78,168.1-168.6,168.1s-168.1-77.5-168.1-168.1
					S473.2,2045.9,563.8,2045.9z M563.8,2377.9c90.6,0,131.2-72.8,131.2-163.4c0-90.6-40.6-163.9-131.2-163.9
					s-130.8,73.3-130.8,163.9C433.1,2305.1,473.2,2377.9,563.8,2377.9z"/>
				<path class="st0" d="M914.5,2167.8c0,99.5-87.3,116.7-126.1,116.7v93.4h-28V2051h28C827.2,2051.1,914.5,2068.3,914.5,2167.8z
					 M881.8,2167.8c0-96.7-61.6-112.1-93.4-112.1v224.1C820.2,2279.9,881.8,2264.4,881.8,2167.8z"/>
			</g>
		</g>
		<g>
			<g>
				<path class="st0" d="M623.1,1657.7h-34.5c0,236.7-25.8,510.2-97.2,510.2v-28c60.7,0,92.5-209.4,92.5-482.2h-16.8v-4.7h84v326.9
					h-28V1657.7z"/>
				<path class="st0" d="M726.7,1975.2h56v4.7h-84V1653h84v4.7h-56v112.1h28v4.7h-28V1975.2z"/>
				<path class="st0" d="M895.3,1769.7V1653h28v326.9h-28v-205.5h-60.7v205.5h-28V1653h28v116.7H895.3z"/>
				<path class="st0" d="M1012,1886.5h-34.5l-10.7,93.4h-6.1l30.8-268l-7-58.8h28.5l39.2,326.9h-29L1012,1886.5z M1011.6,1881.8
					l-15.9-135.9h-1.9l-15.9,135.9H1011.6z"/>
			</g>
		</g>
	</g>
	<g>
		<path class="st0" d="M207,244.9c0-12.5,2.1-21.5,6.2-27.1s9.7-8.4,16.7-8.4c4.3,0,7.9,1.1,10.9,3.2s5.4,5.3,7,9.7
			s2.5,10.6,2.5,18.9c0,14.4-2.1,24.5-6.2,30.4c-4.1,5.9-9.7,8.9-16.6,8.9c-4.8,0-8.7-1.4-11.9-4.2c-3.2-2.8-5.5-6.8-7-11.9
			C207.6,260.4,207,253.9,207,244.9z M215.5,243.6c0,13.2,1.4,22.3,4.1,27.2c2.2,4,5.4,6,9.5,6c3.9,0,6.9-1.9,9-5.5
			c2.6-4.6,3.8-13.1,3.8-25.5c0-13.1-1.4-22.1-4.1-26.9c-2.3-4.1-5.5-6.1-9.7-6.1c-3.9,0-7,2-9.3,6
			C216.6,222.9,215.5,231.2,215.5,243.6z"/>
		<path class="st0" d="M292,209.1l3.5,1.6v0.8c-5.8,1.5-10.7,3.9-14.9,7.1c-4.2,3.2-7.4,6.9-9.8,11.2c-2.3,4.3-3.8,9.4-4.3,15.3
			l5.5-4c1.8-1.4,3.5-2.4,5-2.9c1.5-0.5,3.3-0.8,5.5-0.8c5.5,0,9.8,1.6,12.9,4.9c3.1,3.3,4.6,7.9,4.6,13.8c0,6.7-2.2,12.4-6.6,17.1
			s-9.7,7.1-15.9,7.1c-6.1,0-11-2.3-14.9-6.9c-3.9-4.6-5.8-11.3-5.8-19.9c0-7.1,1.4-13.6,4-19.5c2.7-5.8,6.8-11,12.3-15.4
			C278.6,214.2,284.9,211.1,292,209.1z M278.7,243.2c-2.5,0-4.8,0.6-7,1.9c-2.1,1.2-3.7,2.8-4.7,4.6c-0.7,1.4-1.1,3.9-1.1,7.7
			c0,6.4,1.3,11.4,4,15c2.3,3,5.3,4.5,9,4.5c3.6,0,6.5-1.4,8.7-4.2c2.6-3.2,3.8-7.7,3.8-13.4c0-5.3-1.2-9.3-3.5-12
			C285.6,244.6,282.5,243.2,278.7,243.2z"/>
		<path class="st0" d="M315.7,269c1.6,0,2.9,0.5,4,1.6c1.1,1.1,1.7,2.4,1.7,4c0,1.5-0.5,2.9-1.7,4c-1.1,1.1-2.4,1.7-4,1.7
			c-1.6,0-2.9-0.6-4-1.7s-1.7-2.5-1.7-4c0-1.6,0.5-2.9,1.7-4C312.8,269.6,314.1,269,315.7,269z"/>
		<path class="st0" d="M331.3,244.9c0-12.5,2.1-21.5,6.2-27.1s9.7-8.4,16.7-8.4c4.3,0,7.9,1.1,10.9,3.2s5.4,5.3,7,9.7
			s2.5,10.6,2.5,18.9c0,14.4-2.1,24.5-6.2,30.4c-4.1,5.9-9.7,8.9-16.6,8.9c-4.8,0-8.7-1.4-11.9-4.2c-3.2-2.8-5.5-6.8-7-11.9
			C331.9,260.4,331.3,253.9,331.3,244.9z M339.8,243.6c0,13.2,1.4,22.3,4.1,27.2c2.2,4,5.4,6,9.5,6c4,0,6.9-1.9,9-5.5
			c2.6-4.6,3.8-13.1,3.8-25.5c0-13.1-1.4-22.1-4.1-26.9c-2.3-4.1-5.5-6.1-9.7-6.1c-3.9,0-7,2-9.3,6
			C340.9,222.9,339.8,231.2,339.8,243.6z"/>
		<path class="st0" d="M416.3,209.1l3.5,1.6v0.8c-5.8,1.5-10.7,3.9-14.9,7.1c-4.2,3.2-7.4,6.9-9.8,11.2c-2.3,4.3-3.8,9.4-4.3,15.3
			l5.5-4c1.8-1.4,3.5-2.4,5-2.9c1.5-0.5,3.3-0.8,5.5-0.8c5.5,0,9.8,1.6,12.9,4.9c3.1,3.3,4.6,7.9,4.6,13.8c0,6.7-2.2,12.4-6.6,17.1
			s-9.7,7.1-15.9,7.1c-6.1,0-11-2.3-14.9-6.9c-3.9-4.6-5.8-11.3-5.8-19.9c0-7.1,1.4-13.6,4-19.5c2.7-5.8,6.8-11,12.3-15.4
			C402.9,214.2,409.2,211.1,416.3,209.1z M403,243.2c-2.5,0-4.8,0.6-7,1.9c-2.1,1.2-3.7,2.8-4.7,4.6c-0.7,1.4-1.1,3.9-1.1,7.7
			c0,6.4,1.3,11.4,4,15c2.3,3,5.3,4.5,9,4.5c3.6,0,6.5-1.4,8.7-4.2c2.6-3.2,3.8-7.7,3.8-13.4c0-5.3-1.2-9.3-3.5-12
			C409.9,244.6,406.8,243.2,403,243.2z"/>
		<path class="st0" d="M440,269c1.6,0,2.9,0.5,4,1.6c1.1,1.1,1.7,2.4,1.7,4c0,1.5-0.5,2.9-1.7,4c-1.1,1.1-2.4,1.7-4,1.7
			c-1.6,0-2.9-0.6-4-1.7s-1.7-2.5-1.7-4c0-1.6,0.5-2.9,1.7-4C437,269.6,438.4,269,440,269z"/>
		<path class="st0" d="M454.4,279.4v-2.7l16.8-17.5c6.4-6.6,10.6-12,12.8-16.1s3.2-7.9,3.2-11.5c0-4.4-1.2-7.9-3.8-10.5
			c-2.5-2.6-5.8-3.9-10-3.9c-2.7,0-5.2,0.5-7.4,1.5c-1.6,0.7-2.7,1.6-3.4,2.7c-0.7,1.1-1.7,4.1-3,9h-3c1-6.3,1.5-10.9,1.6-13.7
			c2.4-2.6,5-4.4,7.9-5.6c2.8-1.2,6-1.8,9.6-1.8c6.3,0,11.3,1.8,15,5.3c3.7,3.5,5.6,8.2,5.6,14c0,5-1.7,9.9-5,14.7
			c-3.4,4.8-9,10.8-16.9,18.1l-9.4,9.7h17.8c7.5,0,13.2-0.2,16.9-0.7l0.5,0.4c-0.3,1.9-0.4,3.2-0.4,3.9c0,0.6,0.1,2.1,0.4,4.4
			l-0.5,0.3c-6.4-0.2-13.5-0.3-21.4-0.3C470.1,279.1,462.1,279.2,454.4,279.4z"/>
		<path class="st0" d="M505.3,244.9c0-12.5,2.1-21.5,6.2-27.1c4.2-5.6,9.7-8.4,16.7-8.4c4.3,0,7.9,1.1,10.9,3.2s5.3,5.3,7,9.7
			s2.5,10.6,2.5,18.9c0,14.4-2.1,24.5-6.2,30.4c-4.1,5.9-9.7,8.9-16.6,8.9c-4.8,0-8.7-1.4-11.9-4.2c-3.2-2.8-5.5-6.8-7-11.9
			C505.9,260.4,505.3,253.9,505.3,244.9z M513.8,243.6c0,13.2,1.4,22.3,4.1,27.2c2.2,4,5.4,6,9.5,6c4,0,6.9-1.9,9-5.5
			c2.6-4.6,3.8-13.1,3.8-25.5c0-13.1-1.4-22.1-4.1-26.9c-2.3-4.1-5.5-6.1-9.7-6.1c-3.9,0-7,2-9.3,6
			C514.9,222.9,513.8,231.2,513.8,243.6z"/>
		<path class="st0" d="M553.8,279.4v-2.7l16.8-17.5c6.4-6.6,10.6-12,12.8-16.1c2.2-4.1,3.2-7.9,3.2-11.5c0-4.4-1.2-7.9-3.8-10.5
			c-2.5-2.6-5.8-3.9-10-3.9c-2.7,0-5.2,0.5-7.4,1.5c-1.6,0.7-2.7,1.6-3.4,2.7c-0.7,1.1-1.7,4.1-3,9h-3c1-6.3,1.5-10.9,1.7-13.7
			c2.4-2.6,5-4.4,7.9-5.6c2.8-1.2,6-1.8,9.6-1.8c6.3,0,11.3,1.8,15,5.3c3.7,3.5,5.6,8.2,5.6,14c0,5-1.7,9.9-5,14.7
			c-3.3,4.8-9,10.8-16.9,18.1l-9.4,9.7h17.8c7.5,0,13.2-0.2,16.9-0.7l0.5,0.4c-0.3,1.9-0.4,3.2-0.4,3.9c0,0.6,0.2,2.1,0.4,4.4
			l-0.5,0.3c-6.4-0.2-13.5-0.3-21.4-0.3C569.5,279.1,561.6,279.2,553.8,279.4z"/>
		<path class="st0" d="M640,209.1l3.5,1.6v0.8c-5.8,1.5-10.7,3.9-14.9,7.1c-4.2,3.2-7.4,6.9-9.8,11.2c-2.3,4.3-3.8,9.4-4.3,15.3
			l5.5-4c1.8-1.4,3.5-2.4,5-2.9s3.3-0.8,5.5-0.8c5.5,0,9.8,1.6,12.9,4.9c3.1,3.3,4.6,7.9,4.6,13.8c0,6.7-2.2,12.4-6.6,17.1
			c-4.4,4.7-9.7,7.1-15.9,7.1c-6.1,0-11-2.3-14.9-6.9c-3.8-4.6-5.8-11.3-5.8-19.9c0-7.1,1.3-13.6,4-19.5s6.8-11,12.3-15.4
			C626.6,214.2,632.9,211.1,640,209.1z M626.7,243.2c-2.5,0-4.8,0.6-7,1.9c-2.2,1.2-3.7,2.8-4.7,4.6c-0.7,1.4-1.1,3.9-1.1,7.7
			c0,6.4,1.3,11.4,4,15c2.3,3,5.3,4.5,9,4.5c3.6,0,6.5-1.4,8.7-4.2c2.6-3.2,3.8-7.7,3.8-13.4c0-5.3-1.2-9.3-3.5-12
			C633.7,244.6,630.6,243.2,626.7,243.2z"/>
	</g>
	<line class="st1" x1="1406.6" y1="311" x2="295.6" y2="311"/>
</g>
</svg>
