<?xml version="1.0" encoding="utf-8"?>
<!-- Generator: Adobe Illustrator 24.3.0, SVG Export Plug-In . SVG Version: 6.00 Build 0)  -->
<svg version="1.1" xmlns="http://www.w3.org/2000/svg" xmlns:xlink="http://www.w3.org/1999/xlink" x="0px" y="0px"
	 viewBox="0 0 1256 2622" style="enable-background:new 0 0 1256 2622;" xml:space="preserve">
<style type="text/css">
	.st0{display:none;}
	.st1{display:inline;}
	.st2{fill:#FFFFFF;}
	.st3{fill:#666666;}
	.st4{clip-path:url(#SVGID_2_);}
	.st5{fill:url(#SVGID_3_);}
	.st6{opacity:0.15;}
	.st7{fill:none;stroke:#F2F2F2;stroke-width:3.4643;stroke-miterlimit:10;}
	.st8{fill:none;stroke:#000000;stroke-width:2.3893;stroke-miterlimit:10;}
	.st9{display:inline;fill:none;stroke:#000000;stroke-width:2.4928;stroke-miterlimit:10;}
	.st10{clip-path:url(#SVGID_7_);}
	.st11{fill:url(#SVGID_8_);}
	.st12{fill:none;stroke:#F2F2F2;stroke-width:3.1674;stroke-miterlimit:10;}
	.st13{display:none;opacity:0.7;}
	.st14{opacity:0.1;}
	.st15{fill:#999999;}
	.st16{fill:none;stroke:#B3B3B3;stroke-width:4.1968;stroke-miterlimit:10;}
	.st17{fill:#050505;}
	.st18{fill:url(#SVGID_11_);}
	.st19{fill:none;stroke:#F2F2F2;stroke-width:4.1256;stroke-miterlimit:10;}
	.st20{fill:none;stroke:#000000;stroke-width:3.6573;stroke-miterlimit:10;}
	.st21{font-family:'BookAntiqua';}
	.st22{font-size:36.8036px;}
	.st23{fill:none;stroke:#000000;stroke-width:3.689;stroke-miterlimit:10;}
	.st24{fill:none;stroke:#FFFFFF;stroke-width:5;stroke-miterlimit:10;}
	.st25{fill:url(#SVGID_14_);}
	.st26{fill:none;stroke:#000000;stroke-width:3;stroke-miterlimit:10;}
	.st27{fill:none;stroke:#000000;stroke-width:2.9563;stroke-miterlimit:10;}
	.st28{fill:none;stroke:#B3B3B3;stroke-width:3;stroke-miterlimit:10;}
	.st29{fill:none;stroke:#FFFFFF;stroke-width:3;stroke-miterlimit:10;}
	.st30{fill:#39B54A;}
	.st31{fill:#29ABE2;}
	.st32{fill:none;stroke:#666666;stroke-width:16;stroke-miterlimit:10;}
	.st33{fill:none;stroke:#B3B3B3;stroke-width:37;stroke-miterlimit:10;}
	.st34{fill:#00FFFF;}
	.st35{font-size:37.6786px;}
</style>
<g id="пк" class="st0">
</g>
<g id="телефон">
	<g class="st0">
		<path class="st1" d="M-51,912v638.5c0,374.17,303.33,677.5,677.5,677.5h0c374.17,0,677.5-303.33,677.5-677.5V912H-51z
			 M806.84,1961.4H448v-111.64h358.83V1961.4z"/>
		<rect x="448" y="1849.76" class="st1" width="358.83" height="111.64"/>
		<g class="st1">
			<text transform="matrix(1 0 0 1 528.4106 1893.3352)"><tspan x="0" y="0" class="st2 st21 st22">подтверить</tspan><tspan x="-8.57" y="44.16" class="st2 st21 st22">присутствие</tspan></text>
		</g>
	</g>
	<g>
		<g>
			<g>
				<g>
					<g>
						<text transform="matrix(1 0 0 1 154.1922 2304.8838)"><tspan x="0" y="0" class="st2 st21 st35">Всегда на связи</tspan><tspan x="0" y="45.21" class="st2 st21 st35">по любым вопросам</tspan></text>
						<g>
							<g>
								<text transform="matrix(1 0 0 1 154.1922 2460.9502)" class="st2 st21 st35">Егор +375 (33) 659-73-30</text>
							</g>
							<g>
								<text transform="matrix(1 0 0 1 154.1922 2531.6113)" class="st2 st21 st35">Лена +375 (44) 567-07-06</text>
							</g>
						</g>
					</g>
				</g>
				<g>
					<g>
						<path class="st2" d="M724.05,2292.94c0,2.68-0.45,5.78-1.34,9.28c-0.89,3.51-2.13,7.1-3.71,10.78
							c-1.58,3.68-3.47,7.27-5.66,10.78c-2.2,3.51-4.62,6.64-7.26,9.39c-2.64,2.75-5.44,4.97-8.39,6.65
							c-2.95,1.68-5.97,2.53-9.06,2.53c-1.92,0-3.59-0.36-5-1.08c-1.41-0.72-2.57-1.7-3.5-2.94c-0.93-1.24-1.61-2.67-2.06-4.28
							c-0.45-1.62-0.67-3.32-0.67-5.11c0-2.61,0.52-5.6,1.55-8.97c1.03-3.37,2.44-6.81,4.22-10.32c1.78-3.51,3.88-6.95,6.28-10.32
							c2.4-3.37,4.98-6.38,7.72-9.03c2.74-2.65,5.6-4.78,8.55-6.4c2.95-1.62,5.87-2.42,8.75-2.42c1.78,0,3.28,0.29,4.48,0.88
							c1.2,0.59,2.18,1.39,2.94,2.43c0.75,1.03,1.3,2.25,1.65,3.66C723.88,2289.86,724.05,2291.36,724.05,2292.94z M720.14,2291.07
							c0-1.92-0.38-3.66-1.13-5.2c-0.76-1.54-2.23-2.32-4.43-2.32c-2.27,0-4.6,0.94-7,2.83c-2.4,1.89-4.76,4.33-7.05,7.31
							c-2.3,2.99-4.48,6.32-6.54,9.99c-2.06,3.67-3.86,7.33-5.41,10.97c-1.55,3.64-2.76,7.05-3.66,10.25
							c-0.89,3.19-1.34,5.75-1.34,7.67c0,2.13,0.45,3.95,1.34,5.46c0.89,1.51,2.54,2.27,4.94,2.27c2.33,0,4.7-0.93,7.11-2.78
							c2.4-1.85,4.72-4.26,6.95-7.21c2.23-2.95,4.34-6.28,6.33-9.99c1.99-3.71,3.71-7.38,5.15-11.02c1.44-3.64,2.59-7.07,3.45-10.3
							C719.71,2295.77,720.14,2293.13,720.14,2291.07z"/>
						<path class="st2" d="M768.08,2282.11c-0.04,0.14-0.12,0.28-0.26,0.41c-0.96,1.03-2.09,2.04-3.4,3.04
							c-1.3,1-2.51,1.97-3.6,2.94c-4.88,4.46-9.3,9.3-13.28,14.52c-1.44,1.85-2.97,4.03-4.58,6.54c-1.61,2.51-3.11,5.13-4.48,7.88
							c-1.37,2.75-2.52,5.51-3.45,8.29c-0.93,2.78-1.39,5.37-1.39,7.77c0,1.79,0.48,3.3,1.44,4.53c0.96,1.24,2.37,1.85,4.22,1.85
							c2.4,0,4.77-0.96,7.11-2.87c2.33-1.91,4.41-4.22,6.23-6.93c1.82-2.7,3.28-5.54,4.38-8.52c1.1-2.98,1.65-5.56,1.65-7.75
							c0-1.16-0.26-2.14-0.77-2.92c-0.51-0.79-1.43-1.18-2.73-1.18c-1.72,0-3.36,0.58-4.94,1.75c-1.58,1.17-3.02,2.61-4.33,4.33
							c-1.31,1.72-2.44,3.5-3.4,5.35c-0.96,1.85-1.72,3.5-2.27,4.94l-0.41,0.52l-1.03,0.1l-0.21-0.62c0.48-1.99,1.32-4.14,2.52-6.44
							c1.2-2.3,2.64-4.43,4.32-6.39c1.68-1.96,3.57-3.57,5.67-4.84c2.09-1.27,4.27-1.9,6.54-1.9c2.4,0,4.22,0.79,5.46,2.37
							c1.24,1.58,1.85,3.5,1.85,5.77c0,2.88-0.81,5.96-2.42,9.22c-1.61,3.26-3.69,6.27-6.23,9.01c-2.54,2.75-5.37,5.01-8.5,6.8
							c-3.13,1.78-6.16,2.68-9.12,2.68c-3.43,0-6.14-0.98-8.14-2.94c-1.99-1.96-2.99-4.69-2.99-8.19c0-3.09,0.63-6.26,1.9-9.53
							c1.27-3.26,2.97-6.49,5.1-9.68c2.13-3.19,4.57-6.32,7.31-9.37c2.75-3.05,5.58-5.94,8.5-8.65c2.92-2.71,5.82-5.2,8.7-7.47
							s5.53-4.22,7.93-5.87l0.62-0.1l0.72,1.13C768.2,2281.83,768.11,2281.97,768.08,2282.11z"/>
						<path class="st2" d="M786.15,2338.44c-0.21,1.17-0.79,2.16-1.75,2.99c-0.96,0.82-2.03,1.24-3.19,1.24
							c-1.17,0-2.1-0.41-2.78-1.24c-0.69-0.82-0.93-1.82-0.72-2.99c0.14-1.17,0.7-2.16,1.7-2.99c0.99-0.82,2.08-1.24,3.24-1.24
							c1.17,0,2.09,0.41,2.78,1.24C786.12,2336.28,786.36,2337.28,786.15,2338.44z"/>
						<path class="st2" d="M840.53,2292.94c0,2.68-0.45,5.78-1.34,9.28c-0.89,3.51-2.13,7.1-3.71,10.78
							c-1.58,3.68-3.47,7.27-5.66,10.78c-2.2,3.51-4.62,6.64-7.26,9.39c-2.64,2.75-5.44,4.97-8.39,6.65
							c-2.95,1.68-5.97,2.53-9.06,2.53c-1.92,0-3.59-0.36-5-1.08c-1.41-0.72-2.57-1.7-3.5-2.94c-0.93-1.24-1.61-2.67-2.06-4.28
							c-0.45-1.62-0.67-3.32-0.67-5.11c0-2.61,0.52-5.6,1.55-8.97c1.03-3.37,2.44-6.81,4.22-10.32c1.78-3.51,3.88-6.95,6.28-10.32
							c2.4-3.37,4.98-6.38,7.72-9.03c2.74-2.65,5.6-4.78,8.55-6.4c2.95-1.62,5.87-2.42,8.75-2.42c1.78,0,3.28,0.29,4.48,0.88
							c1.2,0.59,2.18,1.39,2.94,2.43c0.75,1.03,1.3,2.25,1.65,3.66C840.36,2289.86,840.53,2291.36,840.53,2292.94z M836.62,2291.07
							c0-1.92-0.38-3.66-1.13-5.2c-0.76-1.54-2.23-2.32-4.43-2.32c-2.27,0-4.6,0.94-7,2.83c-2.4,1.89-4.76,4.33-7.05,7.31
							c-2.3,2.99-4.48,6.32-6.54,9.99c-2.06,3.67-3.86,7.33-5.41,10.97c-1.55,3.64-2.76,7.05-3.66,10.25
							c-0.89,3.19-1.34,5.75-1.34,7.67c0,2.13,0.45,3.95,1.34,5.46c0.89,1.51,2.54,2.27,4.94,2.27c2.33,0,4.7-0.93,7.11-2.78
							c2.4-1.85,4.72-4.26,6.95-7.21c2.23-2.95,4.34-6.28,6.33-9.99c1.99-3.71,3.71-7.38,5.15-11.02c1.44-3.64,2.59-7.07,3.45-10.3
							C836.19,2295.77,836.62,2293.13,836.62,2291.07z"/>
						<path class="st2" d="M884.56,2282.11c-0.04,0.14-0.12,0.28-0.26,0.41c-0.96,1.03-2.09,2.04-3.4,3.04
							c-1.3,1-2.51,1.97-3.6,2.94c-4.88,4.46-9.3,9.3-13.28,14.52c-1.44,1.85-2.97,4.03-4.58,6.54c-1.61,2.51-3.11,5.13-4.48,7.88
							c-1.37,2.75-2.52,5.51-3.45,8.29c-0.93,2.78-1.39,5.37-1.39,7.77c0,1.79,0.48,3.3,1.44,4.53c0.96,1.24,2.37,1.85,4.22,1.85
							c2.4,0,4.77-0.96,7.11-2.87c2.33-1.91,4.41-4.22,6.23-6.93c1.82-2.7,3.28-5.54,4.38-8.52c1.1-2.98,1.65-5.56,1.65-7.75
							c0-1.16-0.26-2.14-0.77-2.92c-0.51-0.79-1.43-1.18-2.73-1.18c-1.72,0-3.36,0.58-4.94,1.75c-1.58,1.17-3.02,2.61-4.33,4.33
							c-1.3,1.72-2.44,3.5-3.4,5.35c-0.96,1.85-1.72,3.5-2.27,4.94l-0.41,0.52l-1.03,0.1l-0.21-0.62c0.48-1.99,1.32-4.14,2.52-6.44
							c1.2-2.3,2.64-4.43,4.32-6.39c1.68-1.96,3.57-3.57,5.67-4.84c2.09-1.27,4.27-1.9,6.54-1.9c2.4,0,4.22,0.79,5.46,2.37
							c1.24,1.58,1.85,3.5,1.85,5.77c0,2.88-0.81,5.96-2.42,9.22c-1.61,3.26-3.69,6.27-6.23,9.01c-2.54,2.75-5.37,5.01-8.5,6.8
							c-3.13,1.78-6.16,2.68-9.12,2.68c-3.43,0-6.14-0.98-8.14-2.94c-1.99-1.96-2.99-4.69-2.99-8.19c0-3.09,0.63-6.26,1.9-9.53
							c1.27-3.26,2.97-6.49,5.1-9.68c2.13-3.19,4.57-6.32,7.31-9.37c2.75-3.05,5.58-5.94,8.5-8.65c2.92-2.71,5.82-5.2,8.7-7.47
							s5.53-4.22,7.93-5.87l0.62-0.1l0.72,1.13C884.68,2281.83,884.59,2281.97,884.56,2282.11z"/>
						<path class="st2" d="M902.63,2338.44c-0.21,1.17-0.79,2.16-1.75,2.99c-0.96,0.82-2.03,1.24-3.19,1.24
							c-1.17,0-2.1-0.41-2.78-1.24c-0.69-0.82-0.93-1.82-0.72-2.99c0.14-1.17,0.7-2.16,1.7-2.99c0.99-0.82,2.08-1.24,3.24-1.24
							c1.17,0,2.09,0.41,2.78,1.24C902.6,2336.28,902.84,2337.28,902.63,2338.44z"/>
						<path class="st2" d="M956.8,2290.45c0,1.85-0.74,3.98-2.21,6.39c-1.48,2.4-3.38,4.93-5.72,7.57c-2.33,2.64-4.93,5.3-7.77,7.98
							c-2.85,2.68-5.66,5.2-8.45,7.57c-2.78,2.37-5.34,4.5-7.67,6.39c-2.34,1.89-4.16,3.38-5.46,4.48c0.69,0.34,1.68,0.84,2.99,1.49
							c1.3,0.65,2.68,1.3,4.12,1.96c1.44,0.65,2.81,1.22,4.12,1.7c1.3,0.48,2.27,0.72,2.88,0.72c1.44,0,2.8-0.38,4.07-1.13
							c1.27-0.76,2.4-1.58,3.4-2.47c0.99-0.89,1.85-1.73,2.57-2.52c0.72-0.79,1.25-1.25,1.6-1.39l0.72,0.62v0.41
							c-0.82,1.03-1.87,2.23-3.14,3.6c-1.27,1.38-2.66,2.71-4.17,4.02c-1.51,1.3-3.04,2.4-4.58,3.3c-1.55,0.89-3.01,1.34-4.38,1.34
							c-0.76,0-1.9-0.28-3.45-0.82c-1.54-0.55-3.14-1.17-4.79-1.85c-1.65-0.68-3.21-1.35-4.69-2.01c-1.48-0.65-2.52-1.11-3.14-1.39
							l-7.21,5.66l-1.34-0.82c0.07-0.21,0.6-0.88,1.6-2.01c0.99-1.13,2.09-2.37,3.3-3.71c1.2-1.34,2.33-2.56,3.4-3.66
							c1.06-1.1,1.66-1.68,1.8-1.75c0.34-0.07,0.72-0.1,1.13-0.1c0.41,0,0.79,0.07,1.13,0.21c1.37-1.24,3.14-2.83,5.3-4.79
							c2.16-1.96,4.43-4.12,6.8-6.49c2.37-2.37,4.75-4.86,7.16-7.47c2.4-2.61,4.55-5.2,6.44-7.77c1.89-2.58,3.43-5.06,4.64-7.47
							c1.2-2.4,1.8-4.6,1.8-6.59c0-1.58-0.45-2.73-1.34-3.45c-0.89-0.72-2.1-1.08-3.6-1.08c-1.99,0-3.86,0.52-5.61,1.55
							c-1.75,1.03-3.36,2.34-4.84,3.91c-1.48,1.58-2.78,3.31-3.91,5.2c-1.13,1.89-2.01,3.66-2.63,5.3l-0.41,0.41h-1.24l-0.2-0.62
							c0.82-2.27,1.92-4.51,3.3-6.75c1.37-2.23,2.99-4.26,4.84-6.08c1.85-1.82,3.91-3.3,6.18-4.43s4.7-1.7,7.31-1.7
							c2.61,0,4.82,0.72,6.64,2.16C955.89,2285.51,956.8,2287.64,956.8,2290.45z"/>
						<path class="st2" d="M1007.27,2292.94c0,2.68-0.45,5.78-1.34,9.28c-0.89,3.51-2.13,7.1-3.71,10.78
							c-1.58,3.68-3.47,7.27-5.66,10.78c-2.2,3.51-4.62,6.64-7.26,9.39c-2.64,2.75-5.44,4.97-8.39,6.65
							c-2.95,1.68-5.97,2.53-9.06,2.53c-1.92,0-3.59-0.36-5-1.08c-1.41-0.72-2.57-1.7-3.5-2.94c-0.93-1.24-1.61-2.67-2.06-4.28
							c-0.45-1.62-0.67-3.32-0.67-5.11c0-2.61,0.52-5.6,1.55-8.97c1.03-3.37,2.44-6.81,4.22-10.32c1.78-3.51,3.88-6.95,6.28-10.32
							c2.4-3.37,4.98-6.38,7.72-9.03c2.74-2.65,5.6-4.78,8.55-6.4c2.95-1.62,5.87-2.42,8.75-2.42c1.78,0,3.28,0.29,4.48,0.88
							c1.2,0.59,2.18,1.39,2.94,2.43c0.75,1.03,1.3,2.25,1.65,3.66C1007.09,2289.86,1007.27,2291.36,1007.27,2292.94z
							 M1003.35,2291.07c0-1.92-0.38-3.66-1.13-5.2c-0.76-1.54-2.23-2.32-4.43-2.32c-2.27,0-4.6,0.94-7,2.83
							c-2.4,1.89-4.76,4.33-7.05,7.31c-2.3,2.99-4.48,6.32-6.54,9.99c-2.06,3.67-3.86,7.33-5.41,10.97
							c-1.55,3.64-2.76,7.05-3.66,10.25c-0.89,3.19-1.34,5.75-1.34,7.67c0,2.13,0.45,3.95,1.34,5.46c0.89,1.51,2.54,2.27,4.94,2.27
							c2.33,0,4.7-0.93,7.11-2.78c2.4-1.85,4.72-4.26,6.95-7.21c2.23-2.95,4.34-6.28,6.33-9.99c1.99-3.71,3.71-7.38,5.15-11.02
							c1.44-3.64,2.59-7.07,3.45-10.3C1002.92,2295.77,1003.35,2293.13,1003.35,2291.07z"/>
						<path class="st2" d="M1058.76,2290.45c0,1.85-0.74,3.98-2.21,6.39c-1.48,2.4-3.38,4.93-5.72,7.57
							c-2.33,2.64-4.93,5.3-7.77,7.98c-2.85,2.68-5.66,5.2-8.45,7.57c-2.78,2.37-5.34,4.5-7.67,6.39c-2.34,1.89-4.16,3.38-5.46,4.48
							c0.69,0.34,1.68,0.84,2.99,1.49c1.3,0.65,2.68,1.3,4.12,1.96c1.44,0.65,2.81,1.22,4.12,1.7c1.3,0.48,2.27,0.72,2.88,0.72
							c1.44,0,2.8-0.38,4.07-1.13c1.27-0.76,2.4-1.58,3.4-2.47c0.99-0.89,1.85-1.73,2.57-2.52c0.72-0.79,1.25-1.25,1.6-1.39
							l0.72,0.62v0.41c-0.82,1.03-1.87,2.23-3.14,3.6c-1.27,1.38-2.66,2.71-4.17,4.02c-1.51,1.3-3.04,2.4-4.58,3.3
							c-1.55,0.89-3,1.34-4.38,1.34c-0.76,0-1.9-0.28-3.45-0.82c-1.54-0.55-3.14-1.17-4.79-1.85c-1.65-0.68-3.21-1.35-4.69-2.01
							c-1.48-0.65-2.52-1.11-3.14-1.39l-7.21,5.66l-1.34-0.82c0.07-0.21,0.6-0.88,1.6-2.01c0.99-1.13,2.09-2.37,3.3-3.71
							c1.2-1.34,2.33-2.56,3.4-3.66c1.06-1.1,1.66-1.68,1.8-1.75c0.34-0.07,0.72-0.1,1.13-0.1c0.41,0,0.79,0.07,1.13,0.21
							c1.37-1.24,3.14-2.83,5.3-4.79c2.16-1.96,4.43-4.12,6.8-6.49c2.37-2.37,4.75-4.86,7.16-7.47c2.4-2.61,4.55-5.2,6.44-7.77
							c1.89-2.58,3.43-5.06,4.64-7.47c1.2-2.4,1.8-4.6,1.8-6.59c0-1.58-0.45-2.73-1.34-3.45c-0.89-0.72-2.1-1.08-3.6-1.08
							c-1.99,0-3.86,0.52-5.61,1.55c-1.75,1.03-3.36,2.34-4.84,3.91c-1.48,1.58-2.78,3.31-3.91,5.2c-1.13,1.89-2.01,3.66-2.63,5.3
							l-0.41,0.41h-1.24l-0.2-0.62c0.82-2.27,1.92-4.51,3.3-6.75c1.37-2.23,2.99-4.26,4.84-6.08c1.85-1.82,3.91-3.3,6.18-4.43
							s4.7-1.7,7.31-1.7c2.61,0,4.82,0.72,6.64,2.16C1057.85,2285.51,1058.76,2287.64,1058.76,2290.45z"/>
						<path class="st2" d="M1101.55,2282.11c-0.04,0.14-0.12,0.28-0.26,0.41c-0.96,1.03-2.09,2.04-3.4,3.04
							c-1.31,1-2.51,1.97-3.6,2.94c-4.88,4.46-9.3,9.3-13.28,14.52c-1.44,1.85-2.97,4.03-4.58,6.54c-1.61,2.51-3.11,5.13-4.48,7.88
							c-1.37,2.75-2.52,5.51-3.45,8.29c-0.93,2.78-1.39,5.37-1.39,7.77c0,1.79,0.48,3.3,1.44,4.53s2.37,1.85,4.22,1.85
							c2.4,0,4.77-0.96,7.11-2.87c2.33-1.91,4.41-4.22,6.23-6.93c1.82-2.7,3.28-5.54,4.38-8.52c1.1-2.98,1.65-5.56,1.65-7.75
							c0-1.16-0.26-2.14-0.77-2.92c-0.51-0.79-1.43-1.18-2.73-1.18c-1.72,0-3.36,0.58-4.94,1.75c-1.58,1.17-3.02,2.61-4.33,4.33
							c-1.31,1.72-2.44,3.5-3.4,5.35c-0.96,1.85-1.72,3.5-2.27,4.94l-0.41,0.52l-1.03,0.1l-0.21-0.62c0.48-1.99,1.32-4.14,2.52-6.44
							c1.2-2.3,2.64-4.43,4.32-6.39c1.68-1.96,3.57-3.57,5.67-4.84c2.09-1.27,4.27-1.9,6.54-1.9c2.4,0,4.22,0.79,5.46,2.37
							c1.24,1.58,1.85,3.5,1.85,5.77c0,2.88-0.81,5.96-2.42,9.22c-1.61,3.26-3.69,6.27-6.23,9.01c-2.54,2.75-5.37,5.01-8.5,6.8
							c-3.13,1.78-6.16,2.68-9.12,2.68c-3.43,0-6.14-0.98-8.14-2.94c-1.99-1.96-2.99-4.69-2.99-8.19c0-3.09,0.63-6.26,1.9-9.53
							c1.27-3.26,2.97-6.49,5.1-9.68c2.13-3.19,4.57-6.32,7.31-9.37c2.75-3.05,5.58-5.94,8.5-8.65c2.92-2.71,5.82-5.2,8.7-7.47
							s5.53-4.22,7.93-5.87l0.62-0.1l0.72,1.13C1101.67,2281.83,1101.58,2281.97,1101.55,2282.11z"/>
					</g>
				</g>
			</g>
			<g>
				<g>
					<path class="st2" d="M684.88,2519.86h-0.91v22.36h-6.85v-78.25h6.85c2.36,0,5.29,0.33,8.79,1.01c3.5,0.67,6.88,2.01,10.16,4.02
						c3.27,2.01,6.07,4.84,8.39,8.49c2.32,3.65,3.48,8.46,3.48,14.42c0,3.65-0.48,6.87-1.43,9.67c-0.95,2.79-2.19,5.22-3.71,7.27
						c-1.52,2.05-3.29,3.74-5.31,5.09c-2.02,1.34-4.09,2.42-6.22,3.24c-2.13,0.82-4.24,1.44-6.33,1.84
						c-2.09,0.41-3.98,0.65-5.65,0.73c1.83,3.88,3.9,6.87,6.22,9c2.32,2.12,4.75,3.69,7.3,4.7c2.55,1.01,5.12,1.6,7.7,1.79
						c2.59,0.19,5.06,0.28,7.42,0.28v6.71c-2.97,0-5.97-0.61-9.01-1.84c-3.04-1.23-5.92-2.87-8.62-4.92
						c-2.7-2.05-5.12-4.43-7.25-7.15C687.77,2525.58,686.1,2522.76,684.88,2519.86z M683.97,2518.74c1.98,0,4.26-0.32,6.85-0.95
						c2.59-0.63,5.08-1.9,7.47-3.8c2.4-1.9,4.41-4.6,6.05-8.1c1.63-3.5,2.45-8.16,2.45-13.97s-0.82-10.47-2.45-13.97
						c-1.64-3.5-3.65-6.2-6.05-8.1c-2.4-1.9-4.89-3.17-7.47-3.8c-2.59-0.63-4.87-0.95-6.85-0.95V2518.74z"/>
					<path class="st2" d="M720.48,2503.09c0-5.44,1.1-10.6,3.31-15.48c2.21-4.88,5.19-9.17,8.96-12.85
						c3.77-3.69,8.12-6.61,13.06-8.77c4.94-2.16,10.19-3.24,15.75-3.24c5.55,0,10.82,1.08,15.8,3.24c4.98,2.16,9.36,5.09,13.12,8.77
						c3.77,3.69,6.75,7.97,8.96,12.85c2.21,4.88,3.31,10.04,3.31,15.48c0,5.44-1.1,10.58-3.31,15.43c-2.21,4.84-5.19,9.11-8.96,12.8
						c-3.77,3.69-8.14,6.61-13.12,8.77c-4.98,2.16-10.25,3.24-15.8,3.24c-5.55,0-10.8-1.08-15.75-3.24
						c-4.95-2.16-9.3-5.09-13.06-8.77c-3.77-3.69-6.75-7.95-8.96-12.8C721.58,2513.67,720.48,2508.53,720.48,2503.09z
						 M729.61,2503.09c0,5.44,0.63,10.53,1.88,15.26c1.25,4.73,3.2,8.87,5.82,12.41c2.62,3.54,5.93,6.33,9.93,8.38
						c3.99,2.05,8.77,3.07,14.32,3.07c5.55,0,10.34-1.02,14.38-3.07c4.03-2.05,7.36-4.84,9.99-8.38c2.62-3.54,4.56-7.67,5.82-12.41
						c1.26-4.73,1.88-9.82,1.88-15.26c0-5.44-0.63-10.54-1.88-15.31c-1.25-4.77-3.2-8.92-5.82-12.46c-2.62-3.54-5.95-6.33-9.99-8.38
						c-4.03-2.05-8.82-3.07-14.38-3.07c-5.55,0-10.33,1.03-14.32,3.07c-3.99,2.05-7.3,4.84-9.93,8.38
						c-2.62,3.54-4.56,7.7-5.82,12.46C730.24,2492.55,729.61,2497.65,729.61,2503.09z"/>
					<path class="st2" d="M813.82,2496.38l-6.5-32.42h6.96l5.59,27.95h0.23l5.48-27.95h1.48l-6.28,32.42v45.83h-6.96V2496.38z"/>
					<path class="st2" d="M846.45,2519.86h-8.44l-2.62,22.36h-1.48l7.53-64.16l-1.71-14.08h6.96l9.59,78.25h-7.08L846.45,2519.86z
						 M846.34,2518.74l-3.88-32.53H842l-3.88,32.53H846.34z"/>
					<path class="st2" d="M873.38,2541.09h15.98v1.12h-22.82v-78.25h6.85V2541.09z"/>
					<path class="st2" d="M958.96,2463.97c2.36,0,5.29,0.33,8.79,1.01c3.5,0.67,6.88,2.01,10.16,4.02c3.27,2.01,6.07,4.84,8.39,8.49
						c2.32,3.65,3.48,8.46,3.48,14.42c0,5.96-1.16,10.77-3.48,14.42c-2.32,3.65-5.12,6.48-8.39,8.5c-3.27,2.01-6.66,3.35-10.16,4.02
						c-3.5,0.67-6.43,1.01-8.79,1.01v22.36h-6.85v-78.25H958.96z M958.96,2518.74c1.98,0,4.26-0.32,6.85-0.95
						c2.59-0.63,5.08-1.9,7.47-3.8c2.4-1.9,4.41-4.6,6.05-8.1c1.63-3.5,2.45-8.16,2.45-13.97s-0.82-10.47-2.45-13.97
						c-1.64-3.5-3.65-6.2-6.05-8.1c-2.4-1.9-4.89-3.17-7.47-3.8c-2.59-0.63-4.87-0.95-6.85-0.95V2518.74z"/>
					<path class="st2" d="M1005.74,2519.86h-8.44l-2.62,22.36h-1.48l7.53-64.16l-1.71-14.08h6.96l9.59,78.25h-7.08L1005.74,2519.86z
						 M1005.63,2518.74l-3.88-32.53h-0.46l-3.88,32.53H1005.63z"/>
					<path class="st2" d="M1033.58,2519.86h-0.91v22.36h-6.85v-78.25h6.85c2.36,0,5.29,0.33,8.79,1.01
						c3.5,0.67,6.88,2.01,10.16,4.02c3.27,2.01,6.07,4.84,8.39,8.49c2.32,3.65,3.48,8.46,3.48,14.42c0,3.65-0.48,6.87-1.43,9.67
						c-0.95,2.79-2.19,5.22-3.71,7.27c-1.52,2.05-3.29,3.74-5.31,5.09c-2.02,1.34-4.09,2.42-6.22,3.24
						c-2.13,0.82-4.24,1.44-6.33,1.84c-2.09,0.41-3.98,0.65-5.65,0.73c1.83,3.88,3.9,6.87,6.22,9c2.32,2.12,4.75,3.69,7.3,4.7
						c2.55,1.01,5.12,1.6,7.7,1.79c2.59,0.19,5.06,0.28,7.42,0.28v6.71c-2.97,0-5.97-0.61-9.01-1.84c-3.04-1.23-5.92-2.87-8.61-4.92
						c-2.7-2.05-5.12-4.43-7.24-7.15C1036.47,2525.58,1034.8,2522.76,1033.58,2519.86z M1032.67,2518.74c1.98,0,4.26-0.32,6.85-0.95
						c2.59-0.63,5.08-1.9,7.47-3.8c2.4-1.9,4.41-4.6,6.05-8.1c1.63-3.5,2.45-8.16,2.45-13.97s-0.82-10.47-2.45-13.97
						c-1.64-3.5-3.65-6.2-6.05-8.1c-2.4-1.9-4.89-3.17-7.47-3.8c-2.59-0.63-4.87-0.95-6.85-0.95V2518.74z"/>
					<path class="st2" d="M1079.45,2542.21h-6.85v-78.25h6.85V2542.21z M1080.13,2491.91c2.28-1.79,4.11-3.74,5.48-5.87
						c1.37-2.12,2.43-4.36,3.2-6.71c0.76-2.35,1.27-4.81,1.54-7.38c0.26-2.57,0.4-5.23,0.4-7.99h6.85c0,3.2-0.53,6.22-1.6,9.05
						c-1.07,2.83-2.4,5.44-3.99,7.82c-1.6,2.39-3.29,4.51-5.08,6.37c-1.79,1.86-3.37,3.43-4.74,4.7c1.37,0.45,3.14,1.56,5.31,3.35
						c2.17,1.79,4.28,4.6,6.33,8.44c2.05,3.84,3.8,8.87,5.25,15.09c1.44,6.22,2.17,14.03,2.17,23.42h-6.85
						c0-9.76-0.32-17.68-0.97-23.75c-0.65-6.07-1.58-10.92-2.8-14.53c-1.22-3.61-2.7-6.28-4.45-7.99
						C1084.43,2494.22,1082.42,2492.88,1080.13,2491.91z"/>
				</g>
			</g>
		</g>
	</g>
</g>
<g id="пк_направляющие" class="st0">
</g>
<g id="телефон_направляющие" class="st0">
</g>
</svg>
